<svg xmlns="http://www.w3.org/2000/svg" viewBox="0 0 1024 1024" role="img" aria-label="A traveller walking with a suitcase">
  <g fill="#231F20">
    <path d="M250 700 h190 a14 14 0 0 1 14 14 v150 a14 14 0 0 1 -14 14 h-190 a14 14 0 0 1 -14 -14 v-150 a14 14 0 0 1 14 -14 z" fill="#FFFFFF" stroke="#231F20" stroke-width="9"/>
    <rect x="286" y="748" width="118" height="12" rx="6" fill="#231F20" fill-opacity=".2"/>
    <path d="M449 706 C452 640 468 592 506 566 C474 600 462 648 461 708 Z"/>
    <path d="M452 560 h62 a9 9 0 0 1 0 18 h-62 a9 9 0 0 1 0 -18 z"/>
    <circle cx="268" cy="886" r="15"/><circle cx="428" cy="886" r="15"/>
    <path d="M600 610 C646 660 684 742 700 836 C676 846 652 846 632 838 C620 752 596 686 566 636 Z"/>
    <path d="M556 612 C556 690 546 772 528 852 C552 862 578 860 596 850 C606 766 610 686 606 616 Z"/>
    <path d="M512 848 C538 840 568 842 600 852 C606 872 588 884 556 884 C526 884 508 872 512 848 Z"/>
    <path d="M628 836 C654 828 684 830 712 840 C720 860 702 874 672 874 C644 874 624 860 628 836 Z"/>
    <path d="M540 360 C500 372 482 420 478 480 C474 540 486 590 500 622 C552 638 608 634 626 620 C634 560 632 470 620 416 C610 376 584 358 556 356 Z" fill="#FFFFFF" stroke="#231F20" stroke-width="9" stroke-linejoin="round"/>
    <path d="M536 362 C546 386 566 388 580 366 C570 392 542 394 536 362 Z"/>
    <path d="M498 452 C470 500 460 548 470 580 C480 552 496 508 516 466 Z"/>
    <path d="M462 574 C476 566 492 570 496 584 C500 600 486 610 470 606 C456 602 452 584 462 574 Z" fill="#FFFFFF" stroke="#231F20" stroke-width="8"/>
    <path d="M620 446 C654 486 672 530 668 566 C654 534 632 496 606 462 Z"/>
    <path d="M548 330 h34 v38 h-34 z" fill="#FFFFFF" stroke="#231F20" stroke-width="9"/>
    <ellipse cx="566" cy="268" rx="62" ry="72" fill="#FFFFFF" stroke="#231F20" stroke-width="9"/>
    <path d="M506 262 C498 196 536 158 586 160 C636 162 664 200 656 250 C650 224 634 206 610 200 C596 226 566 238 536 232 C522 240 512 250 506 262 Z"/>
    <path d="M646 226 C672 236 682 268 670 292 C666 266 656 244 640 234 Z"/>
    <path d="M588 258 C598 250 612 250 620 258 C610 254 598 254 588 258 Z"/>
    <path d="M624 276 C632 280 632 290 624 292 C628 286 628 280 624 276 Z"/>
    <path d="M596 300 C606 308 618 306 624 298 C620 312 600 314 596 300 Z"/>
    <circle cx="762" cy="300" r="7"/><circle cx="806" cy="392" r="5"/><circle cx="330" cy="330" r="6"/><circle cx="268" cy="470" r="5"/>
    <path d="M712 214 C726 202 742 196 756 198 C742 206 726 212 712 214 Z"/><path d="M748 246 C762 238 776 234 788 236 C776 242 762 246 748 246 Z"/>
    <path d="M300 866 h56 v9 h-56 z"/><path d="M180 902 h74 v9 h-74 z"/>
    <circle cx="860" cy="660" r="6"/><circle cx="188" cy="640" r="5"/>
  </g>
</svg>
