<svg xmlns="http://www.w3.org/2000/svg" viewBox="0 0 1600 900">
  <rect id="bg" width="1600" height="900" fill="#FFFFFF"/>
  <g fill="#231F20" transform="translate(0,-28)">
  <path d="M309.0 552.0 Q327.0 536.0 405.0 536.0 Q483.0 536.0 492.0 544.0 Q501.0 552.0 501.0 660.0 Q501.0 768.0 492.0 776.0 Q483.0 784.0 405.0 784.0 Q327.0 784.0 318.0 776.0 Q309.0 768.0 309.0 660.0 L309.0 552.0 Z" fill="#FFFFFF"/>
  <path d="M311.0 554.2 Q324.3 551.1 326.7 544.7 L329.0 538.2 325.0 533.8 Q311.7 536.9 309.3 543.3 L307.0 549.8 Z"/>
  <path d="M327.0 539.0 Q405.0 545.5 444.0 542.2 L483.0 539.0 483.0 533.0 Q405.0 526.5 366.0 529.8 L327.0 533.0 Z"/>
  <path d="M481.0 538.2 Q485.7 551.1 492.3 552.7 L499.0 554.2 503.0 549.8 Q498.3 536.9 491.7 535.3 L485.0 533.8 Z"/>
  <path d="M498.0 552.0 Q491.5 660.0 494.8 714.0 L498.0 768.0 504.0 768.0 Q510.5 660.0 507.2 606.0 L504.0 552.0 Z"/>
  <path d="M499.0 765.8 Q485.7 768.9 483.3 775.3 L481.0 781.8 485.0 786.2 Q498.3 783.1 500.7 776.7 L503.0 770.2 Z"/>
  <path d="M483.0 781.0 Q405.0 774.5 366.0 777.8 L327.0 781.0 327.0 787.0 Q405.0 793.5 444.0 790.2 L483.0 787.0 Z"/>
  <path d="M329.0 781.8 Q324.3 768.9 317.7 767.3 L311.0 765.8 307.0 770.2 Q311.7 783.1 318.3 784.7 L325.0 786.2 Z"/>
  <path d="M312.0 768.0 Q318.5 660.0 315.2 606.0 L312.0 552.0 306.0 552.0 Q299.5 660.0 302.8 714.0 L306.0 768.0 Z"/>
  <path d="M317.1 634.5 Q405.0 634.5 448.9 634.5 L492.9 634.5 493.1 629.5 Q405.0 619.5 360.9 624.5 L316.9 629.5 Z"/>
  <path d="M380.5 522.7 Q379.6 487.6 385.4 481.1 L391.2 474.6 388.8 471.4 Q366.4 484.4 371.0 503.9 L375.5 523.3 Z"/>
  <path d="M434.5 523.3 Q443.6 484.4 432.4 477.9 L421.2 471.4 418.8 474.6 Q430.4 487.6 430.0 505.1 L429.5 522.7 Z"/>
  <path d="M390.3 475.0 Q405.0 477.5 412.4 476.2 L419.7 475.0 420.3 471.0 Q405.0 464.5 397.4 467.8 L389.7 471.0 Z"/>
  <path d="M311.0 690.0 Q365.0 688.0 405.0 687.5 Q445.0 687.0 472.0 686.5 Q499.0 686.0 499.0 710.0 Q499.0 734.0 472.0 734.5 Q445.0 735.0 405.0 736.0 Q365.0 737.0 338.0 737.5 Q311.0 738.0 311.0 714.0 L311.0 690.0 Z"/>
  <path d="M362.0 799.0 Q361.1 804.5 359.8 807.0 Q358.4 809.4 356.4 811.3 Q354.3 813.2 351.8 814.3 Q349.2 815.5 346.5 815.7 Q343.7 815.9 341.0 815.3 Q338.3 814.6 335.9 813.1 Q333.6 811.6 331.8 809.4 Q330.1 807.2 329.2 804.6 Q328.3 801.9 328.2 799.1 Q328.2 796.4 329.1 793.7 Q330.0 791.1 331.7 788.8 Q333.3 786.6 335.7 785.1 Q338.0 783.5 340.7 782.8 Q343.4 782.1 346.2 782.3 Q348.9 782.5 351.5 783.5 Q354.1 784.6 356.2 786.5 Q358.3 788.4 359.6 790.8 Q361.0 793.2 361.5 796.0 Q362.0 798.7 362.0 798.9 L362.0 799.0 Z"/>
  <path d="M482.0 799.0 Q481.1 804.5 479.8 807.0 Q478.4 809.4 476.4 811.3 Q474.3 813.2 471.8 814.3 Q469.2 815.5 466.5 815.7 Q463.7 815.9 461.0 815.3 Q458.3 814.6 455.9 813.1 Q453.6 811.6 451.8 809.4 Q450.1 807.2 449.2 804.6 Q448.3 801.9 448.2 799.1 Q448.2 796.4 449.1 793.7 Q450.0 791.1 451.7 788.8 Q453.3 786.6 455.7 785.1 Q458.0 783.5 460.7 782.8 Q463.4 782.1 466.2 782.3 Q468.9 782.5 471.5 783.5 Q474.1 784.6 476.2 786.5 Q478.3 788.4 479.6 790.8 Q481.0 793.2 481.5 796.0 Q482.0 798.7 482.0 798.9 L482.0 799.0 Z"/>
  <path d="M369.0 534.0 Q441.0 534.0 441.0 525.5 Q441.0 517.0 405.0 517.0 Q369.0 517.0 369.0 525.5 L369.0 534.0 Z"/>
  <path d="M1047.0 516.0 Q1095.0 516.0 1120.0 582.0 Q1145.0 648.0 1161.0 710.0 Q1177.0 772.0 1154.0 777.0 Q1131.0 782.0 1114.0 720.0 Q1097.0 658.0 1084.0 614.0 Q1071.0 570.0 1059.0 543.0 L1047.0 516.0 Z"/>
  <path d="M1031.0 516.0 Q1079.0 522.0 1067.0 585.0 Q1055.0 648.0 1031.0 709.0 Q1007.0 770.0 987.0 763.0 Q967.0 756.0 986.0 698.0 Q1005.0 640.0 1014.0 606.0 Q1023.0 572.0 1027.0 544.0 L1031.0 516.0 Z"/>
  <path d="M1165.0 762.0 Q1231.0 784.0 1232.0 794.0 Q1233.0 804.0 1191.0 803.0 Q1149.0 802.0 1143.0 791.0 Q1137.0 780.0 1151.0 771.0 L1165.0 762.0 Z"/>
  <path d="M965.0 752.0 Q925.0 784.0 922.0 794.0 Q919.0 804.0 963.0 803.0 Q1007.0 802.0 1011.0 786.0 Q1015.0 770.0 990.0 761.0 L965.0 752.0 Z"/>
  <path d="M1018.0 334.0 Q1042.0 313.0 1066.0 313.0 Q1090.0 313.0 1102.0 324.5 Q1114.0 336.0 1120.0 390.0 Q1126.0 444.0 1122.0 490.0 Q1118.0 536.0 1077.0 538.0 Q1036.0 540.0 1029.0 492.0 Q1022.0 444.0 1020.0 389.0 L1018.0 334.0 Z" fill="#FFFFFF"/>
  <path d="M1020.0 336.3 Q1036.3 330.6 1040.1 323.0 L1044.0 315.3 1040.0 310.7 Q1023.7 316.4 1019.9 324.0 L1016.0 331.7 Z"/>
  <path d="M1042.0 316.0 Q1066.0 322.5 1078.0 319.2 L1090.0 316.0 1090.0 310.0 Q1066.0 303.5 1054.0 306.8 L1042.0 310.0 Z"/>
  <path d="M1087.9 315.2 Q1095.4 331.4 1103.7 334.8 L1111.9 338.2 1116.1 333.8 Q1108.6 317.6 1100.3 314.2 L1092.1 310.8 Z"/>
  <path d="M1111.0 336.3 Q1110.6 391.0 1116.8 417.7 L1123.0 444.3 1129.0 443.7 Q1129.4 389.0 1123.2 362.3 L1117.0 335.7 Z"/>
  <path d="M1123.0 443.7 Q1112.5 489.2 1113.8 512.5 L1115.0 535.7 1121.0 536.3 Q1131.5 490.8 1130.2 467.5 L1129.0 444.3 Z"/>
  <path d="M1117.9 533.0 Q1076.5 528.5 1056.2 532.8 L1035.9 537.0 1036.1 543.0 Q1077.5 547.5 1097.8 543.2 L1118.1 539.0 Z"/>
  <path d="M1039.0 539.6 Q1038.4 490.6 1031.7 467.1 L1025.0 443.6 1019.0 444.4 Q1019.6 493.4 1026.3 516.9 L1033.0 540.4 Z"/>
  <path d="M1025.0 443.9 Q1029.5 388.7 1025.2 361.3 L1021.0 333.9 1015.0 334.1 Q1010.5 389.3 1014.8 416.7 L1019.0 444.1 Z"/>
  <path d="M1055.5 340.1 Q1055.5 400.1 1056.5 431.0 L1057.5 462.0 1060.5 462.0 Q1066.5 399.9 1062.5 369.9 L1058.5 339.9 Z"/>
  <path d="M1011.4 340.2 Q957.6 422.0 960.8 460.7 L964.0 499.4 978.0 500.6 Q996.4 434.0 1011.5 390.9 L1026.6 347.8 Z"/>
  <path d="M1105.4 349.7 Q1133.0 431.4 1132.6 465.0 L1132.1 498.7 1145.9 501.3 Q1173.0 424.6 1146.8 383.5 L1120.6 342.3 Z"/>
  <path d="M989.0 518.0 Q987.9 524.5 986.4 527.4 Q984.8 530.3 982.4 532.5 Q980.0 534.7 977.0 536.0 Q974.0 537.4 970.7 537.7 Q967.4 537.9 964.3 537.1 Q961.1 536.4 958.3 534.6 Q955.5 532.8 953.5 530.2 Q951.5 527.6 950.4 524.6 Q949.3 521.5 949.3 518.2 Q949.2 514.9 950.3 511.8 Q951.3 508.7 953.3 506.0 Q955.3 503.4 958.0 501.6 Q960.7 499.8 963.9 498.9 Q967.1 498.1 970.4 498.3 Q973.6 498.5 976.7 499.8 Q979.7 501.1 982.1 503.3 Q984.6 505.5 986.2 508.3 Q987.8 511.2 988.4 514.4 Q989.0 517.7 989.0 517.8 L989.0 518.0 Z"/>
  <path d="M1159.0 518.0 Q1157.9 524.5 1156.4 527.4 Q1154.8 530.3 1152.4 532.5 Q1150.0 534.7 1147.0 536.0 Q1144.0 537.4 1140.7 537.7 Q1137.4 537.9 1134.3 537.1 Q1131.1 536.4 1128.3 534.6 Q1125.5 532.8 1123.5 530.2 Q1121.5 527.6 1120.4 524.6 Q1119.3 521.5 1119.3 518.2 Q1119.2 514.9 1120.3 511.8 Q1121.3 508.7 1123.3 506.0 Q1125.3 503.4 1128.0 501.6 Q1130.7 499.8 1133.9 498.9 Q1137.1 498.1 1140.4 498.3 Q1143.6 498.5 1146.7 499.8 Q1149.7 501.1 1152.1 503.3 Q1154.6 505.5 1156.2 508.3 Q1157.8 511.2 1158.4 514.4 Q1159.0 517.7 1159.0 517.8 L1159.0 518.0 Z"/>
  <path d="M995.0 358.0 Q1035.0 350.0 1039.0 382.0 Q1043.0 414.0 1040.0 441.0 Q1037.0 468.0 1015.0 471.0 Q993.0 474.0 988.0 442.0 Q983.0 410.0 989.0 384.0 L995.0 358.0 Z" fill="#231F20" fill-opacity="0.2"/>
  <path d="M995.4 360.0 Q1016.4 360.9 1025.9 356.4 L1035.4 352.0 1034.6 348.0 Q1013.6 347.1 1004.1 351.6 L994.6 356.0 Z"/>
  <path d="M1033.0 350.2 Q1032.1 382.9 1036.5 398.6 L1041.0 414.2 1045.0 413.8 Q1045.9 381.1 1041.5 365.4 L1037.0 349.8 Z"/>
  <path d="M1041.0 413.8 Q1033.0 440.2 1034.0 454.0 L1035.0 467.8 1039.0 468.2 Q1047.0 441.8 1046.0 428.0 L1045.0 414.2 Z"/>
  <path d="M1036.7 466.0 Q1014.1 464.1 1003.4 468.0 L992.7 472.0 993.3 476.0 Q1015.9 477.9 1026.6 474.0 L1037.3 470.0 Z"/>
  <path d="M995.0 473.7 Q994.9 440.9 989.9 425.3 L985.0 409.7 981.0 410.3 Q981.1 443.1 986.1 458.7 L991.0 474.3 Z"/>
  <path d="M984.9 410.4 Q995.8 385.6 996.4 372.0 L996.9 358.4 993.1 357.6 Q982.2 382.4 981.6 396.0 L981.1 409.6 Z"/>
  <path d="M1037.2 358.0 Q1056.9 343.1 1059.5 335.0 L1062.2 327.0 1059.8 325.0 Q1045.1 332.9 1039.0 343.5 L1032.8 354.0 Z"/>
  <path d="M1111.0 250.0 Q1110.4 257.4 1109.5 260.9 Q1108.6 264.5 1107.2 267.9 Q1105.8 271.3 1103.8 274.4 Q1101.8 277.6 1099.4 280.3 Q1096.9 283.1 1094.1 285.4 Q1091.2 287.8 1088.0 289.6 Q1084.8 291.5 1081.4 292.8 Q1078.0 294.1 1074.3 294.9 Q1070.7 295.6 1067.0 295.8 Q1063.4 296.0 1059.7 295.5 Q1056.0 295.1 1052.5 294.1 Q1048.9 293.1 1045.6 291.5 Q1042.2 290.0 1039.2 287.9 Q1036.1 285.8 1033.5 283.3 Q1030.8 280.7 1028.5 277.8 Q1026.3 274.9 1024.6 271.6 Q1022.8 268.4 1021.6 264.9 Q1020.4 261.4 1019.8 257.7 Q1019.2 254.1 1019.2 250.4 Q1019.1 246.7 1019.7 243.1 Q1020.2 239.4 1021.4 235.9 Q1022.5 232.4 1024.2 229.1 Q1025.9 225.8 1028.1 222.8 Q1030.2 219.9 1032.9 217.3 Q1035.5 214.7 1038.5 212.6 Q1041.5 210.4 1044.9 208.8 Q1048.2 207.2 1051.7 206.1 Q1055.2 205.0 1058.9 204.6 Q1062.6 204.1 1066.2 204.2 Q1069.9 204.3 1073.6 205.0 Q1077.2 205.6 1080.7 206.9 Q1084.1 208.2 1087.3 210.0 Q1090.6 211.8 1093.5 214.1 Q1096.4 216.3 1098.8 219.1 Q1101.3 221.8 1103.4 224.9 Q1105.4 228.0 1106.9 231.3 Q1108.4 234.7 1109.3 238.3 Q1110.3 241.9 1110.6 245.5 Q1111.0 249.2 1111.0 249.6 L1111.0 250.0 Z" fill="#FFFFFF"/>
  <path d="M1106.3 262.0 Q1103.8 264.8 1102.9 266.2 Q1102.1 267.6 1101.2 268.9 Q1100.4 270.2 1099.4 271.5 Q1098.5 272.7 1097.5 273.9 Q1096.6 275.0 1095.5 276.1 Q1094.4 277.1 1093.3 278.1 Q1092.2 279.1 1091.0 279.9 Q1089.8 280.8 1088.6 281.5 Q1087.3 282.3 1086.0 282.9 Q1084.7 283.5 1083.4 284.1 Q1082.1 284.6 1080.7 285.0 Q1079.3 285.4 1077.9 285.7 Q1076.6 286.1 1075.1 286.3 Q1073.7 286.5 1072.3 286.6 Q1070.9 286.7 1069.5 286.7 Q1068.0 286.7 1066.6 286.6 Q1065.2 286.5 1063.8 286.3 Q1062.3 286.1 1060.9 285.9 Q1059.5 285.6 1058.1 285.3 Q1056.7 284.9 1055.3 284.5 Q1053.9 284.1 1052.6 283.6 Q1051.2 283.1 1049.8 282.5 Q1048.5 282.0 1047.2 281.3 Q1045.9 280.7 1044.6 280.0 Q1043.3 279.3 1042.0 278.5 Q1040.8 277.8 1039.6 276.9 Q1038.3 276.1 1037.2 275.2 Q1036.0 274.3 1034.9 273.3 Q1033.7 272.3 1032.7 271.3 Q1031.6 270.2 1030.6 269.1 Q1029.6 267.9 1028.6 266.7 Q1027.6 265.5 1026.7 264.2 Q1025.8 263.0 1024.9 261.6 Q1024.0 260.2 1022.7 258.8 L1021.4 257.4 1015.6 259.0 Q1014.9 263.1 1015.2 265.2 Q1015.6 267.2 1016.2 269.2 Q1016.8 271.1 1017.6 273.0 Q1018.5 274.9 1019.5 276.7 Q1020.4 278.5 1021.6 280.2 Q1022.7 281.9 1024.0 283.5 Q1025.3 285.0 1026.6 286.5 Q1028.0 288.0 1029.5 289.3 Q1031.0 290.7 1032.5 291.9 Q1034.1 293.1 1035.7 294.3 Q1037.3 295.4 1039.0 296.4 Q1040.7 297.4 1042.5 298.3 Q1044.2 299.2 1046.1 299.9 Q1047.9 300.7 1049.8 301.4 Q1051.6 302.0 1053.6 302.6 Q1055.5 303.1 1057.5 303.5 Q1059.5 303.9 1061.5 304.1 Q1063.6 304.4 1065.6 304.5 Q1067.7 304.6 1069.8 304.5 Q1071.9 304.5 1074.0 304.2 Q1076.2 304.0 1078.3 303.6 Q1080.4 303.1 1082.5 302.5 Q1084.5 301.9 1086.6 301.1 Q1088.6 300.3 1090.5 299.3 Q1092.5 298.2 1094.3 297.0 Q1096.2 295.8 1097.9 294.5 Q1099.6 293.1 1101.1 291.6 Q1102.7 290.0 1104.1 288.4 Q1105.5 286.7 1106.7 284.9 Q1107.8 283.1 1108.8 281.2 Q1109.8 279.4 1110.6 277.4 Q1111.4 275.5 1111.9 273.5 Q1112.5 271.5 1112.7 269.5 Q1113.0 267.4 1112.6 265.4 L1112.1 263.4 Z"/>
  <path d="M1023.0 240.9 Q1025.3 237.9 1026.1 236.4 Q1026.8 235.0 1027.6 233.6 Q1028.4 232.2 1029.2 230.9 Q1030.0 229.6 1031.0 228.3 Q1031.9 227.1 1032.9 225.9 Q1033.9 224.8 1035.0 223.8 Q1036.0 222.7 1037.2 221.8 Q1038.3 220.8 1039.5 220.0 Q1040.8 219.2 1042.0 218.4 Q1043.3 217.7 1044.6 217.1 Q1045.9 216.5 1047.3 216.0 Q1048.6 215.5 1050.0 215.1 Q1051.4 214.7 1052.8 214.4 Q1054.3 214.1 1055.7 213.9 Q1057.1 213.7 1058.6 213.6 Q1060.0 213.5 1061.5 213.6 Q1062.9 213.6 1064.4 213.7 Q1065.8 213.8 1067.2 214.0 Q1068.7 214.2 1070.1 214.4 Q1071.6 214.7 1073.0 215.1 Q1074.4 215.4 1075.8 215.9 Q1077.2 216.3 1078.6 216.8 Q1080.0 217.3 1081.3 217.9 Q1082.7 218.4 1084.0 219.1 Q1085.4 219.7 1086.7 220.5 Q1088.0 221.2 1089.2 222.0 Q1090.5 222.8 1091.7 223.6 Q1093.0 224.5 1094.1 225.5 Q1095.3 226.4 1096.4 227.4 Q1097.6 228.5 1098.6 229.6 Q1099.7 230.7 1100.7 231.9 Q1101.7 233.1 1102.7 234.3 Q1103.7 235.6 1104.6 236.9 Q1105.6 238.3 1106.9 239.7 L1108.3 241.1 1114.0 239.3 Q1114.6 235.1 1114.2 233.0 Q1113.7 231.0 1113.0 229.0 Q1112.3 227.1 1111.4 225.2 Q1110.5 223.3 1109.5 221.5 Q1108.4 219.7 1107.2 218.1 Q1105.9 216.4 1104.6 214.9 Q1103.2 213.3 1101.8 211.9 Q1100.3 210.5 1098.8 209.2 Q1097.2 207.9 1095.6 206.7 Q1094.0 205.5 1092.3 204.5 Q1090.6 203.4 1088.8 202.5 Q1087.0 201.5 1085.2 200.7 Q1083.4 199.9 1081.5 199.2 Q1079.6 198.5 1077.7 197.9 Q1075.8 197.4 1073.8 196.9 Q1071.8 196.5 1069.7 196.2 Q1067.7 195.9 1065.6 195.7 Q1063.6 195.6 1061.5 195.6 Q1059.3 195.6 1057.2 195.8 Q1055.1 196.0 1053.0 196.3 Q1050.8 196.7 1048.7 197.3 Q1046.6 197.8 1044.6 198.6 Q1042.5 199.3 1040.5 200.3 Q1038.5 201.2 1036.6 202.4 Q1034.7 203.5 1032.9 204.8 Q1031.1 206.1 1029.5 207.6 Q1027.8 209.1 1026.3 210.8 Q1024.9 212.4 1023.6 214.2 Q1022.3 216.0 1021.2 217.8 Q1020.1 219.7 1019.2 221.7 Q1018.3 223.6 1017.7 225.7 Q1017.0 227.7 1016.6 229.7 Q1016.2 231.8 1016.1 233.8 Q1015.9 235.9 1016.5 237.9 L1017.0 239.9 Z"/>
  <path d="M1053.2 293.1 Q1050.3 309.6 1056.0 313.4 L1061.8 317.3 1068.2 314.7 Q1071.7 302.4 1066.3 296.7 L1060.8 290.9 Z"/>
  <path d="M1013.0 276.0 Q1007.0 230.0 1024.0 210.0 Q1041.0 190.0 1062.0 189.0 Q1083.0 188.0 1099.0 204.0 Q1115.0 220.0 1117.0 236.0 Q1119.0 252.0 1108.0 242.0 Q1097.0 232.0 1082.0 227.0 Q1067.0 222.0 1053.0 227.0 Q1039.0 232.0 1035.0 253.0 Q1031.0 274.0 1022.0 275.0 L1013.0 276.0 Z"/>
  <path d="M1007.0 234.0 Q981.0 278.0 986.0 302.0 Q991.0 326.0 1009.0 323.0 Q1027.0 320.0 1026.0 294.0 Q1025.0 268.0 1016.0 251.0 L1007.0 234.0 Z"/>
  <path d="M1053.7 247.3 Q1054.8 247.0 1055.1 246.8 Q1055.4 246.7 1055.7 246.5 Q1056.0 246.3 1056.2 246.2 Q1056.5 246.0 1056.7 245.8 Q1057.0 245.7 1057.2 245.6 Q1057.5 245.4 1057.7 245.3 Q1058.0 245.2 1058.2 245.1 Q1058.5 245.0 1058.7 244.9 Q1058.9 244.8 1059.2 244.7 Q1059.4 244.6 1059.7 244.5 Q1059.9 244.4 1060.1 244.4 Q1060.4 244.3 1060.6 244.3 Q1060.9 244.2 1061.1 244.2 Q1061.3 244.1 1061.6 244.1 Q1061.8 244.1 1062.1 244.0 Q1062.3 244.0 1062.5 244.0 Q1062.8 244.0 1063.0 244.0 Q1063.2 244.0 1063.5 244.0 Q1063.7 244.0 1063.9 244.0 Q1064.2 244.1 1064.4 244.1 Q1064.7 244.1 1064.9 244.2 Q1065.1 244.2 1065.4 244.3 Q1065.6 244.3 1065.9 244.4 Q1066.1 244.4 1066.3 244.5 Q1066.6 244.6 1066.8 244.7 Q1067.1 244.8 1067.3 244.9 Q1067.5 245.0 1067.8 245.1 Q1068.0 245.2 1068.3 245.3 Q1068.5 245.4 1068.8 245.6 Q1069.0 245.7 1069.3 245.8 Q1069.5 246.0 1069.8 246.2 Q1070.0 246.3 1070.3 246.5 Q1070.6 246.7 1070.9 246.8 Q1071.2 247.0 1071.7 247.2 L1072.3 247.3 1074.1 246.5 Q1074.6 245.4 1074.6 244.9 Q1074.5 244.4 1074.4 244.0 Q1074.3 243.5 1074.1 243.0 Q1073.9 242.6 1073.7 242.2 Q1073.5 241.8 1073.2 241.3 Q1072.9 240.9 1072.6 240.6 Q1072.3 240.2 1072.0 239.8 Q1071.7 239.5 1071.3 239.1 Q1070.9 238.8 1070.5 238.5 Q1070.1 238.2 1069.7 237.9 Q1069.3 237.7 1068.8 237.4 Q1068.4 237.2 1067.9 237.0 Q1067.5 236.8 1067.0 236.7 Q1066.5 236.5 1066.0 236.4 Q1065.5 236.3 1065.0 236.2 Q1064.5 236.1 1064.0 236.1 Q1063.5 236.0 1063.0 236.0 Q1062.5 236.0 1062.0 236.1 Q1061.5 236.1 1061.0 236.2 Q1060.5 236.3 1060.0 236.4 Q1059.5 236.5 1059.0 236.7 Q1058.5 236.8 1058.1 237.0 Q1057.6 237.2 1057.2 237.4 Q1056.7 237.7 1056.3 237.9 Q1055.9 238.2 1055.5 238.5 Q1055.1 238.8 1054.7 239.1 Q1054.3 239.5 1054.0 239.8 Q1053.7 240.2 1053.4 240.6 Q1053.1 240.9 1052.8 241.3 Q1052.5 241.8 1052.3 242.2 Q1052.1 242.6 1051.9 243.0 Q1051.7 243.5 1051.6 244.0 Q1051.5 244.4 1051.4 244.9 Q1051.4 245.4 1051.6 245.9 L1051.9 246.5 Z"/>
  <path d="M1081.7 247.3 Q1082.8 247.0 1083.1 246.8 Q1083.4 246.7 1083.7 246.5 Q1084.0 246.3 1084.2 246.2 Q1084.5 246.0 1084.7 245.8 Q1085.0 245.7 1085.2 245.6 Q1085.5 245.4 1085.7 245.3 Q1086.0 245.2 1086.2 245.1 Q1086.5 245.0 1086.7 244.9 Q1086.9 244.8 1087.2 244.7 Q1087.4 244.6 1087.7 244.5 Q1087.9 244.4 1088.1 244.4 Q1088.4 244.3 1088.6 244.3 Q1088.9 244.2 1089.1 244.2 Q1089.3 244.1 1089.6 244.1 Q1089.8 244.1 1090.1 244.0 Q1090.3 244.0 1090.5 244.0 Q1090.8 244.0 1091.0 244.0 Q1091.2 244.0 1091.5 244.0 Q1091.7 244.0 1091.9 244.0 Q1092.2 244.1 1092.4 244.1 Q1092.7 244.1 1092.9 244.2 Q1093.1 244.2 1093.4 244.3 Q1093.6 244.3 1093.9 244.4 Q1094.1 244.4 1094.3 244.5 Q1094.6 244.6 1094.8 244.7 Q1095.1 244.8 1095.3 244.9 Q1095.5 245.0 1095.8 245.1 Q1096.0 245.2 1096.3 245.3 Q1096.5 245.4 1096.8 245.6 Q1097.0 245.7 1097.3 245.8 Q1097.5 246.0 1097.8 246.2 Q1098.0 246.3 1098.3 246.5 Q1098.6 246.7 1098.9 246.8 Q1099.2 247.0 1099.7 247.2 L1100.3 247.3 1102.1 246.5 Q1102.6 245.4 1102.6 244.9 Q1102.5 244.4 1102.4 244.0 Q1102.3 243.5 1102.1 243.0 Q1101.9 242.6 1101.7 242.2 Q1101.5 241.8 1101.2 241.3 Q1100.9 240.9 1100.6 240.6 Q1100.3 240.2 1100.0 239.8 Q1099.7 239.5 1099.3 239.1 Q1098.9 238.8 1098.5 238.5 Q1098.1 238.2 1097.7 237.9 Q1097.3 237.7 1096.8 237.4 Q1096.4 237.2 1095.9 237.0 Q1095.5 236.8 1095.0 236.7 Q1094.5 236.5 1094.0 236.4 Q1093.5 236.3 1093.0 236.2 Q1092.5 236.1 1092.0 236.1 Q1091.5 236.0 1091.0 236.0 Q1090.5 236.0 1090.0 236.1 Q1089.5 236.1 1089.0 236.2 Q1088.5 236.3 1088.0 236.4 Q1087.5 236.5 1087.0 236.7 Q1086.5 236.8 1086.1 237.0 Q1085.6 237.2 1085.2 237.4 Q1084.7 237.7 1084.3 237.9 Q1083.9 238.2 1083.5 238.5 Q1083.1 238.8 1082.7 239.1 Q1082.3 239.5 1082.0 239.8 Q1081.7 240.2 1081.4 240.6 Q1081.1 240.9 1080.8 241.3 Q1080.5 241.8 1080.3 242.2 Q1080.1 242.6 1079.9 243.0 Q1079.7 243.5 1079.6 244.0 Q1079.5 244.4 1079.4 244.9 Q1079.4 245.4 1079.6 245.9 L1079.9 246.5 Z"/>
  <path d="M1105.1 263.4 Q1105.8 269.7 1103.7 270.9 L1101.7 272.0 1102.3 274.0 Q1112.2 272.3 1109.6 267.5 L1106.9 262.6 Z"/>
  <path d="M1084.8 285.5 Q1083.9 285.5 1083.6 285.7 Q1083.4 285.8 1083.1 285.9 Q1082.9 286.0 1082.7 286.1 Q1082.4 286.2 1082.2 286.3 Q1082.0 286.4 1081.8 286.5 Q1081.6 286.6 1081.4 286.6 Q1081.2 286.7 1081.0 286.8 Q1080.8 286.9 1080.6 286.9 Q1080.3 287.0 1080.1 287.1 Q1079.9 287.1 1079.7 287.2 Q1079.5 287.2 1079.3 287.3 Q1079.2 287.3 1079.0 287.3 Q1078.8 287.4 1078.6 287.4 Q1078.4 287.4 1078.2 287.4 Q1078.0 287.5 1077.8 287.5 Q1077.6 287.5 1077.4 287.5 Q1077.2 287.5 1077.0 287.5 Q1076.8 287.5 1076.6 287.5 Q1076.4 287.5 1076.2 287.5 Q1076.0 287.5 1075.8 287.4 Q1075.6 287.4 1075.4 287.4 Q1075.2 287.4 1075.0 287.3 Q1074.8 287.3 1074.7 287.3 Q1074.5 287.2 1074.3 287.2 Q1074.1 287.1 1073.9 287.1 Q1073.7 287.0 1073.4 286.9 Q1073.2 286.9 1073.0 286.8 Q1072.8 286.7 1072.6 286.6 Q1072.4 286.6 1072.2 286.5 Q1072.0 286.4 1071.8 286.3 Q1071.6 286.2 1071.3 286.1 Q1071.1 286.0 1070.9 285.9 Q1070.6 285.8 1070.4 285.7 Q1070.1 285.5 1069.7 285.5 L1069.2 285.5 1067.5 286.5 Q1067.2 287.5 1067.3 287.9 Q1067.4 288.2 1067.5 288.6 Q1067.6 288.9 1067.8 289.3 Q1068.0 289.6 1068.2 289.9 Q1068.4 290.3 1068.6 290.6 Q1068.9 290.9 1069.1 291.2 Q1069.4 291.4 1069.7 291.7 Q1070.0 292.0 1070.3 292.2 Q1070.6 292.5 1070.9 292.7 Q1071.3 292.9 1071.6 293.1 Q1072.0 293.3 1072.3 293.5 Q1072.7 293.6 1073.1 293.8 Q1073.4 293.9 1073.8 294.0 Q1074.2 294.1 1074.6 294.2 Q1075.0 294.3 1075.4 294.4 Q1075.8 294.4 1076.2 294.5 Q1076.6 294.5 1077.0 294.5 Q1077.4 294.5 1077.8 294.5 Q1078.2 294.4 1078.6 294.4 Q1079.0 294.3 1079.4 294.2 Q1079.8 294.1 1080.2 294.0 Q1080.6 293.9 1080.9 293.8 Q1081.3 293.6 1081.7 293.5 Q1082.0 293.3 1082.4 293.1 Q1082.7 292.9 1083.1 292.7 Q1083.4 292.5 1083.7 292.2 Q1084.0 292.0 1084.3 291.7 Q1084.6 291.4 1084.9 291.2 Q1085.1 290.9 1085.4 290.6 Q1085.6 290.3 1085.8 289.9 Q1086.0 289.6 1086.2 289.3 Q1086.4 288.9 1086.5 288.6 Q1086.6 288.2 1086.7 287.9 Q1086.8 287.5 1086.7 287.0 L1086.5 286.5 Z"/>
  <path d="M647.0 452.0 Q646.2 455.2 645.1 456.5 Q644.0 457.8 642.4 458.3 Q640.9 458.9 639.2 458.8 Q637.6 458.6 636.2 457.6 Q634.8 456.7 634.0 455.2 Q633.2 453.7 633.2 452.1 Q633.2 450.4 633.9 448.9 Q634.7 447.4 636.1 446.5 Q637.4 445.5 639.1 445.3 Q640.8 445.0 642.3 445.6 Q643.9 446.2 645.0 447.4 Q646.1 448.6 646.6 450.3 Q647.0 451.9 647.0 451.9 L647.0 452.0 Z"/>
  <path d="M705.0 548.0 Q704.4 550.3 703.6 551.2 Q702.9 552.1 701.7 552.5 Q700.6 553.0 699.4 552.8 Q698.3 552.7 697.3 552.0 Q696.3 551.3 695.7 550.3 Q695.2 549.2 695.1 548.0 Q695.1 546.8 695.7 545.8 Q696.2 544.7 697.2 544.0 Q698.2 543.3 699.4 543.2 Q700.5 543.0 701.7 543.4 Q702.8 543.8 703.6 544.7 Q704.4 545.6 704.7 546.8 Q705.0 547.9 705.0 548.0 L705.0 548.0 Z"/>
  <path d="M613.0 614.0 Q612.4 616.3 611.6 617.2 Q610.9 618.1 609.7 618.5 Q608.6 619.0 607.4 618.8 Q606.3 618.7 605.3 618.0 Q604.3 617.3 603.7 616.3 Q603.2 615.2 603.1 614.0 Q603.1 612.8 603.7 611.8 Q604.2 610.7 605.2 610.0 Q606.2 609.3 607.4 609.2 Q608.5 609.0 609.7 609.4 Q610.8 609.8 611.6 610.7 Q612.4 611.6 612.7 612.8 Q613.0 613.9 613.0 614.0 L613.0 614.0 Z"/>
  <path d="M766.0 412.0 Q765.3 414.8 764.4 415.9 Q763.4 416.9 762.1 417.4 Q760.7 418.0 759.3 417.8 Q757.9 417.6 756.7 416.8 Q755.5 416.0 754.9 414.7 Q754.2 413.5 754.2 412.1 Q754.2 410.6 754.8 409.3 Q755.5 408.1 756.6 407.2 Q757.8 406.4 759.2 406.2 Q760.6 406.0 762.0 406.5 Q763.3 407.0 764.3 408.1 Q765.3 409.1 765.6 410.5 Q766.0 411.9 766.0 411.9 L766.0 412.0 Z"/>
  <path d="M1306.0 340.0 Q1305.3 342.8 1304.4 343.9 Q1303.4 344.9 1302.1 345.4 Q1300.7 346.0 1299.3 345.8 Q1297.9 345.6 1296.7 344.8 Q1295.5 344.0 1294.9 342.7 Q1294.2 341.5 1294.2 340.1 Q1294.2 338.6 1294.8 337.3 Q1295.5 336.1 1296.6 335.2 Q1297.8 334.4 1299.2 334.2 Q1300.6 334.0 1302.0 334.5 Q1303.3 335.0 1304.3 336.1 Q1305.3 337.1 1305.6 338.5 Q1306.0 339.9 1306.0 339.9 L1306.0 340.0 Z"/>
  <path d="M1353.0 470.0 Q1352.4 472.3 1351.6 473.2 Q1350.9 474.1 1349.7 474.5 Q1348.6 475.0 1347.4 474.8 Q1346.3 474.7 1345.3 474.0 Q1344.3 473.3 1343.7 472.3 Q1343.2 471.2 1343.1 470.0 Q1343.1 468.8 1343.7 467.8 Q1344.2 466.7 1345.2 466.0 Q1346.2 465.3 1347.4 465.2 Q1348.5 465.0 1349.7 465.4 Q1350.8 465.8 1351.6 466.7 Q1352.4 467.6 1352.7 468.8 Q1353.0 469.9 1353.0 470.0 L1353.0 470.0 Z"/>
  <path d="M1267.0 606.0 Q1266.4 608.3 1265.6 609.2 Q1264.9 610.1 1263.7 610.5 Q1262.6 611.0 1261.4 610.8 Q1260.3 610.7 1259.3 610.0 Q1258.3 609.3 1257.7 608.3 Q1257.2 607.2 1257.1 606.0 Q1257.1 604.8 1257.7 603.8 Q1258.2 602.7 1259.2 602.0 Q1260.2 601.3 1261.4 601.2 Q1262.5 601.0 1263.7 601.4 Q1264.8 601.8 1265.6 602.7 Q1266.4 603.6 1266.7 604.8 Q1267.0 605.9 1267.0 606.0 L1267.0 606.0 Z"/>
  <path d="M857.0 300.0 Q856.4 302.3 855.6 303.2 Q854.9 304.1 853.7 304.5 Q852.6 305.0 851.4 304.8 Q850.3 304.7 849.3 304.0 Q848.3 303.3 847.7 302.3 Q847.2 301.2 847.1 300.0 Q847.1 298.8 847.7 297.8 Q848.2 296.7 849.2 296.0 Q850.2 295.3 851.4 295.2 Q852.5 295.0 853.7 295.4 Q854.8 295.8 855.6 296.7 Q856.4 297.6 856.7 298.8 Q857.0 299.9 857.0 300.0 L857.0 300.0 Z"/>
  <path d="M542.0 372.0 Q541.3 374.8 540.4 375.9 Q539.4 376.9 538.1 377.4 Q536.7 378.0 535.3 377.8 Q533.9 377.6 532.7 376.8 Q531.5 376.0 530.9 374.7 Q530.2 373.5 530.2 372.1 Q530.2 370.6 530.8 369.3 Q531.5 368.1 532.6 367.2 Q533.8 366.4 535.2 366.2 Q536.6 366.0 538.0 366.5 Q539.3 367.0 540.3 368.1 Q541.3 369.1 541.6 370.5 Q542.0 371.9 542.0 371.9 L542.0 372.0 Z"/>
  <path d="M823.0 650.0 Q822.4 652.3 821.6 653.2 Q820.9 654.1 819.7 654.5 Q818.6 655.0 817.4 654.8 Q816.3 654.7 815.3 654.0 Q814.3 653.3 813.7 652.3 Q813.2 651.2 813.1 650.0 Q813.1 648.8 813.7 647.8 Q814.2 646.7 815.2 646.0 Q816.2 645.3 817.4 645.2 Q818.5 645.0 819.7 645.4 Q820.8 645.8 821.6 646.7 Q822.4 647.6 822.7 648.8 Q823.0 649.9 823.0 650.0 L823.0 650.0 Z"/>
  <path d="M1119.0 169.1 Q1136.6 159.2 1142.8 151.1 L1149.0 143.1 1147.0 140.9 Q1129.4 150.8 1123.2 158.9 L1117.0 166.9 Z"/>
  <path d="M1158.5 201.4 Q1178.0 198.1 1186.3 192.8 L1194.5 187.4 1193.5 184.6 Q1174.0 187.9 1165.7 193.2 L1157.5 198.6 Z"/>
  <path d="M993.3 158.7 Q1004.8 146.7 1007.0 138.7 L1009.3 130.7 1006.7 129.3 Q995.2 141.3 993.0 149.3 L990.7 157.3 Z"/>
  <path d="M672.3 495.5 Q695.0 495.4 705.6 491.4 L716.3 487.5 715.7 484.5 Q693.0 484.6 682.4 488.6 L671.7 492.5 Z"/>
  <path d="M574.3 513.5 Q591.0 514.4 598.6 510.9 L606.3 507.5 605.7 504.5 Q589.0 503.6 581.4 507.1 L573.7 510.5 Z"/>
  </g>
</svg>
