<svg xmlns="http://www.w3.org/2000/svg" viewBox="0 0 400 400">
  <rect id="bg" width="400" height="400" fill="#FFFFFF"/>
  <g fill="#231F20">
  <path d="M122.0 262.3 Q123.5 249.3 124.0 242.8 Q124.6 236.3 125.1 229.8 Q125.6 223.2 126.1 216.8 Q126.6 210.4 127.4 204.3 Q128.3 198.3 130.4 192.4 Q132.6 186.5 134.8 180.4 Q137.0 174.2 139.2 168.1 Q141.4 161.9 143.6 155.8 Q145.7 149.7 147.9 143.5 Q150.1 137.4 151.9 132.0 Q153.7 126.6 157.8 123.7 Q161.9 120.9 167.5 118.2 Q173.2 115.5 179.0 112.7 Q184.9 109.9 190.2 107.3 Q195.5 104.7 200.0 104.7 Q204.5 104.7 209.8 107.3 Q215.1 109.9 221.0 112.7 Q226.8 115.5 232.5 118.2 Q238.1 120.9 242.2 123.7 Q246.3 126.6 248.1 132.0 Q249.9 137.4 252.1 143.5 Q254.3 149.7 256.4 155.8 Q258.6 161.9 260.8 168.1 Q263.0 174.2 265.2 180.4 Q267.4 186.5 269.6 192.4 Q271.7 198.3 272.6 204.3 Q273.4 210.4 273.9 216.8 Q274.4 223.2 274.9 229.8 Q275.4 236.3 276.0 242.8 Q276.5 249.3 277.3 255.8 L278.0 262.3 286.0 261.7 Q285.8 248.7 285.5 242.2 Q285.2 235.6 284.9 229.1 Q284.6 222.6 284.2 216.0 Q283.9 209.4 283.0 202.6 Q282.2 195.8 280.0 189.3 Q277.9 182.9 275.7 176.7 Q273.6 170.5 271.5 164.4 Q269.4 158.2 267.3 152.0 Q265.2 145.8 263.0 139.7 Q260.9 133.5 258.4 126.6 Q255.9 119.6 250.1 115.2 Q244.2 110.7 238.1 107.7 Q232.0 104.7 226.1 101.9 Q220.2 99.1 213.8 96.0 Q207.3 93.0 200.0 93.0 Q192.7 93.0 186.2 96.0 Q179.8 99.1 173.9 101.9 Q168.0 104.7 161.9 107.7 Q155.8 110.7 149.9 115.2 Q144.1 119.6 141.6 126.6 Q139.1 133.5 137.0 139.7 Q134.8 145.8 132.7 152.0 Q130.6 158.2 128.5 164.4 Q126.4 170.5 124.3 176.7 Q122.1 182.9 120.0 189.3 Q117.8 195.8 117.0 202.6 Q116.1 209.4 115.8 216.0 Q115.4 222.6 115.1 229.1 Q114.8 235.6 114.5 242.2 Q114.2 248.7 114.1 255.2 L114.0 261.7 Z"/>
  <path d="M96.0 272.0 Q106.9 272.8 112.4 273.0 Q117.9 273.1 123.4 273.3 Q128.8 273.4 134.3 273.5 Q139.8 273.6 145.3 273.6 Q150.7 273.7 156.2 273.8 Q161.7 273.8 167.2 273.9 Q172.6 273.9 178.1 273.9 Q183.6 274.0 189.1 274.0 Q194.5 274.0 200.0 274.0 Q205.5 274.0 210.9 274.0 Q216.4 274.0 221.9 273.9 Q227.4 273.9 232.8 273.9 Q238.3 273.8 243.8 273.8 Q249.3 273.7 254.7 273.6 Q260.2 273.6 265.7 273.5 Q271.2 273.4 276.6 273.3 Q282.1 273.1 287.6 273.0 Q293.1 272.8 298.5 272.4 L304.0 272.0 304.0 264.0 Q293.1 263.2 287.6 263.0 Q282.1 262.9 276.6 262.7 Q271.2 262.6 265.7 262.5 Q260.2 262.4 254.7 262.4 Q249.3 262.3 243.8 262.2 Q238.3 262.2 232.8 262.1 Q227.4 262.1 221.9 262.1 Q216.4 262.0 210.9 262.0 Q205.5 262.0 200.0 262.0 Q194.5 262.0 189.1 262.0 Q183.6 262.0 178.1 262.1 Q172.6 262.1 167.2 262.1 Q161.7 262.2 156.2 262.2 Q150.7 262.3 145.3 262.4 Q139.8 262.4 134.3 262.5 Q128.8 262.6 123.4 262.7 Q117.9 262.9 112.4 263.0 Q106.9 263.2 101.5 263.6 L96.0 264.0 Z"/>
  <circle cx="200" cy="302" r="13"/>
  <circle cx="200" cy="88" r="9"/>
  <circle cx="64" cy="160" r="5"/>
  <circle cx="336" cy="150" r="5"/>
  <circle cx="80" cy="318" r="4"/>
  <circle cx="326" cy="320" r="4"/>
  </g>
</svg>
