<svg xmlns="http://www.w3.org/2000/svg" viewBox="0 0 400 400">
  <rect id="bg" width="400" height="400" fill="#FFFFFF"/>
  <g fill="#231F20">
  <path class="plane" d="M306.0 108.0 L311.6 108.9 L316.6 111.4 L320.6 115.4 L323.1 120.4 L324.0 126.0 L324.0 298.0 L323.1 303.6 L320.6 308.6 L316.6 312.6 L311.6 315.1 L306.0 316.0 L94.0 316.0 L88.4 315.1 L83.4 312.6 L79.4 308.6 L76.9 303.6 L76.0 298.0 L76.0 126.0 L76.9 120.4 L79.4 115.4 L83.4 111.4 L88.4 108.9 L94.0 108.0 Z" fill="#231F20" fill-opacity="0.2"/>
  <path d="M164.7 112.0 Q200.0 112.7 217.7 112.9 Q235.3 113.0 253.0 113.2 Q270.7 113.3 288.3 113.4 Q306.0 113.4 305.6 113.5 Q305.3 113.5 307.2 113.8 Q309.2 114.1 310.6 114.8 Q312.1 115.4 313.3 116.4 Q314.6 117.4 315.5 118.7 Q316.4 120.0 317.0 121.4 Q317.6 122.9 317.8 124.8 Q318.1 126.8 318.0 126.4 Q318.0 126.0 318.0 140.3 Q318.0 154.7 318.0 169.0 Q318.1 183.3 318.1 197.7 Q318.1 212.0 318.2 226.3 Q318.2 240.7 318.2 255.0 Q318.3 269.3 318.4 283.7 Q318.4 298.0 318.5 297.6 Q318.6 297.3 318.5 299.3 Q318.3 301.3 317.8 302.9 Q317.2 304.5 316.3 305.9 Q315.4 307.4 314.0 308.9 L312.6 310.4 317.4 316.8 Q322.1 314.1 324.0 311.8 Q326.0 309.5 327.2 306.8 Q328.5 304.0 328.9 301.4 Q329.4 298.7 329.5 298.4 Q329.6 298.0 329.6 283.7 Q329.7 269.3 329.8 255.0 Q329.8 240.7 329.8 226.3 Q329.9 212.0 329.9 197.7 Q329.9 183.3 330.0 169.0 Q330.0 154.7 330.0 140.3 Q330.0 126.0 330.0 125.6 Q329.9 125.2 329.6 122.5 Q329.2 119.8 327.9 116.9 Q326.7 114.0 324.8 111.6 Q322.9 109.1 320.4 107.2 Q317.9 105.4 315.0 104.2 Q312.1 103.1 309.4 102.8 Q306.7 102.5 306.4 102.5 Q306.0 102.6 288.3 102.6 Q270.7 102.7 253.0 102.8 Q235.3 103.0 217.7 103.1 Q200.0 103.3 182.3 103.6 L164.7 104.0 Z"/>
  <path d="M235.3 312.0 Q200.0 311.3 182.3 311.1 Q164.7 311.0 147.0 310.8 Q129.3 310.7 111.7 310.6 Q94.0 310.6 94.4 310.5 Q94.7 310.5 92.8 310.2 Q90.8 309.9 89.4 309.2 Q87.9 308.6 86.7 307.6 Q85.4 306.6 84.5 305.3 Q83.6 304.0 83.0 302.6 Q82.4 301.1 82.2 299.2 Q81.9 297.2 82.0 297.6 Q82.0 298.0 82.0 283.7 Q82.0 269.3 82.0 255.0 Q81.9 240.7 81.9 226.3 Q81.9 212.0 81.8 197.7 Q81.8 183.3 81.8 169.0 Q81.7 154.7 81.6 140.3 Q81.6 126.0 81.5 126.4 Q81.4 126.7 81.5 124.7 Q81.7 122.7 82.2 121.1 Q82.8 119.5 83.7 118.1 Q84.6 116.6 86.0 115.1 L87.4 113.6 82.6 107.2 Q77.9 109.9 76.0 112.2 Q74.0 114.5 72.8 117.2 Q71.5 120.0 71.1 122.6 Q70.6 125.3 70.5 125.6 Q70.4 126.0 70.4 140.3 Q70.3 154.7 70.2 169.0 Q70.2 183.3 70.2 197.7 Q70.1 212.0 70.1 226.3 Q70.1 240.7 70.0 255.0 Q70.0 269.3 70.0 283.7 Q70.0 298.0 70.0 298.4 Q70.1 298.8 70.4 301.5 Q70.8 304.2 72.1 307.1 Q73.3 310.0 75.2 312.4 Q77.1 314.9 79.6 316.8 Q82.1 318.6 85.0 319.8 Q87.9 320.9 90.6 321.2 Q93.3 321.5 93.6 321.5 Q94.0 321.4 111.7 321.4 Q129.3 321.3 147.0 321.2 Q164.7 321.0 182.3 320.9 Q200.0 320.7 217.7 320.4 L235.3 320.0 Z"/>
  <path d="M306.0 108.0 L311.6 108.9 L316.6 111.4 L320.6 115.4 L323.1 120.4 L324.0 126.0 L324.0 162.0 L76.0 162.0 L76.0 126.0 L76.9 120.4 L79.4 115.4 L83.4 111.4 L88.4 108.9 L94.0 108.0 Z"/>
  <path d="M132.5 76.0 Q131.7 78.7 131.5 80.1 Q131.4 81.5 131.2 82.8 Q131.1 84.2 131.0 85.6 Q130.9 86.9 130.9 88.3 Q130.8 89.7 130.7 91.1 Q130.7 92.4 130.6 93.8 Q130.6 95.2 130.6 96.5 Q130.5 97.9 130.5 99.3 Q130.5 100.6 130.5 102.0 Q130.5 103.4 130.5 104.7 Q130.5 106.1 130.6 107.5 Q130.6 108.8 130.6 110.2 Q130.7 111.6 130.7 112.9 Q130.8 114.3 130.9 115.7 Q130.9 117.1 131.0 118.4 Q131.1 119.8 131.2 121.2 Q131.4 122.5 131.5 123.9 Q131.7 125.3 132.1 126.6 L132.5 128.0 139.5 128.0 Q140.3 125.3 140.5 123.9 Q140.6 122.5 140.8 121.2 Q140.9 119.8 141.0 118.4 Q141.1 117.1 141.1 115.7 Q141.2 114.3 141.3 112.9 Q141.3 111.6 141.4 110.2 Q141.4 108.8 141.4 107.5 Q141.5 106.1 141.5 104.7 Q141.5 103.4 141.5 102.0 Q141.5 100.6 141.5 99.3 Q141.5 97.9 141.4 96.5 Q141.4 95.2 141.4 93.8 Q141.3 92.4 141.3 91.1 Q141.2 89.7 141.1 88.3 Q141.1 86.9 141.0 85.6 Q140.9 84.2 140.8 82.8 Q140.6 81.5 140.5 80.1 Q140.3 78.7 139.9 77.4 L139.5 76.0 Z"/>
  <path d="M260.5 76.0 Q259.7 78.7 259.5 80.1 Q259.4 81.5 259.2 82.8 Q259.1 84.2 259.0 85.6 Q258.9 86.9 258.9 88.3 Q258.8 89.7 258.7 91.1 Q258.7 92.4 258.6 93.8 Q258.6 95.2 258.6 96.5 Q258.5 97.9 258.5 99.3 Q258.5 100.6 258.5 102.0 Q258.5 103.4 258.5 104.7 Q258.5 106.1 258.6 107.5 Q258.6 108.8 258.6 110.2 Q258.7 111.6 258.7 112.9 Q258.8 114.3 258.9 115.7 Q258.9 117.1 259.0 118.4 Q259.1 119.8 259.2 121.2 Q259.4 122.5 259.5 123.9 Q259.7 125.3 260.1 126.6 L260.5 128.0 267.5 128.0 Q268.3 125.3 268.5 123.9 Q268.6 122.5 268.8 121.2 Q268.9 119.8 269.0 118.4 Q269.1 117.1 269.1 115.7 Q269.2 114.3 269.3 112.9 Q269.3 111.6 269.4 110.2 Q269.4 108.8 269.4 107.5 Q269.5 106.1 269.5 104.7 Q269.5 103.4 269.5 102.0 Q269.5 100.6 269.5 99.3 Q269.5 97.9 269.4 96.5 Q269.4 95.2 269.4 93.8 Q269.3 92.4 269.3 91.1 Q269.2 89.7 269.1 88.3 Q269.1 86.9 269.0 85.6 Q268.9 84.2 268.8 82.8 Q268.6 81.5 268.5 80.1 Q268.3 78.7 267.9 77.4 L267.5 76.0 Z"/>
  <circle cx="128" cy="212" r="8"/>
  <circle cx="176" cy="212" r="8"/>
  <circle cx="224" cy="212" r="8"/>
  <circle cx="272" cy="212" r="8"/>
  <circle cx="128" cy="262" r="8"/>
  <circle cx="176" cy="262" r="8"/>
  <circle cx="224" cy="262" r="8"/>
  <circle cx="272" cy="262" r="8"/>
  <circle cx="50" cy="168" r="5"/>
  <circle cx="350" cy="150" r="5"/>
  <circle cx="58" cy="328" r="4"/>
  <circle cx="344" cy="322" r="4"/>
  </g>
</svg>
